<svg width="32" height="32" viewBox="0 0 32 32" fill="none" xmlns="http://www.w3.org/2000/svg">
<path fill-rule="evenodd" clip-rule="evenodd" d="M2.77125 24.6519H8.0625C8.8125 26.9194 9.94875 28.9481 11.2037 30.8344C8.69437 30.0719 6.54688 28.6869 4.78 26.9194C4.03 26.1775 3.395 25.4144 2.77312 24.6519H2.77125ZM4.77812 4.53875C6.54562 2.7725 8.69312 1.5075 11.2019 0.765C9.85669 2.6521 8.79873 4.72821 8.0625 6.92563H2.77125C3.36611 6.07053 4.03786 5.27158 4.77812 4.53875ZM29.2194 6.9275H23.5487C22.7956 4.53875 21.6625 2.38875 20.4075 0.50125C23.0475 1.265 25.4375 2.65 27.3331 4.53875C28.0831 5.28188 28.7181 6.04438 29.2194 6.9275ZM25.0625 15.2162C24.9319 12.7069 24.6919 10.3181 23.9281 8.04937H29.9813C31.2375 10.1981 32 12.5869 32 15.2162H25.0625ZM25.0625 16.3612H32C32 18.9906 31.2375 21.4 29.9831 23.5281V23.4081H24.05C24.6931 21.2594 24.9338 18.8706 25.0644 16.3612H25.0625ZM16.625 23.4081V16.3612H23.93C23.81 18.8706 23.43 21.2594 22.7956 23.4081H16.625ZM16.625 24.6525H22.4263C21.5425 27.1812 20.1481 29.45 18.6419 31.34C18.0081 31.4575 17.375 31.4575 16.625 31.5775V24.6525ZM7.8 16.3612H15.4875V23.4081H8.9375C8.3125 21.2594 7.93375 18.8706 7.80312 16.3612H7.8ZM6.66563 15.2162H0C0.12125 12.5869 0.875 10.1981 2.0075 8.04937H7.66937C7.04437 10.3181 6.66563 12.7069 6.66563 15.2162ZM15.4888 8.04937V15.2162H7.80125C7.92011 12.7933 8.30108 10.3903 8.9375 8.04937H15.4888ZM15.4888 6.92438H9.3125C10.1994 4.41375 11.4631 2.1475 12.9694 0.260625C13.8531 0.12 14.605 0 15.4888 0V6.92438ZM22.7956 8.04937C23.4413 10.3882 23.8219 12.7923 23.93 15.2162H16.625V8.04937H22.7956ZM16.6231 6.92438V0C17.3731 0 18.0081 7.45058e-09 18.64 0.12C20.1467 2.00708 21.4081 4.27542 22.4244 6.925L16.6231 6.92438ZM0 16.3612H6.66563C6.6679 18.7457 7.0058 21.1179 7.66937 23.4081H2.0075C0.797055 21.2482 0.109514 18.8348 0 16.3612H0ZM12.9694 31.1962C11.4631 29.31 10.1994 27.1806 9.31563 24.6519H15.4888V31.5775C14.605 31.4575 13.8531 31.4575 12.9694 31.1962ZM27.3331 26.92C25.435 28.8075 23.0475 30.1925 20.4075 30.9562C21.7187 28.9771 22.8153 26.8639 23.6787 24.6525H29.2188C28.6713 25.4724 28.0391 26.2325 27.3325 26.92H27.3331Z" fill="white"/>
</svg>
